# xmcd
#
# Track frame offsets:
#	150
#	11676
#	25567
#	42256
#	61318
#	75729
#	90431
#	113773
#	135863
#	157964
#	202636
#	221509
#	246026
#	267809
#	291186
#	308008
#	328959
#
# Disc length: 4746 seconds
#
# Revision: 0
# Processed by: cddbd v1.5.2PL0 Copyright (c) Steve Scherf et al.
# Submitted via: EZCDAudioConverter 1.3.4.1
#
DISCID=d3128811
DTITLE=Tim Buckley - Starsailor: The Anthology - Cd2
DYEAR=1900
DGENRE=
TTITLE0=Wings
TTITLE1=Song Of The Magician
TTITLE2=Valentine Melody
TTITLE3=Song Slowly Song
TTITLE4=Carnival Song
TTITLE5=Happy Time
TTITLE6=Dream Letter
TTITLE7=Hallucinations
TTITLE8=Blue Melody
TTITLE9=Lorca
TTITLE10=Come Here Woman
TTITLE11=Cafe
TTITLE12=Move With Me
TTITLE13=Chase The Blues Away
TTITLE14=I Must Have Been Blind
TTITLE15=Jungle Fire
TTITLE16=I Had A Talk With My Woman
EXTD=
EXTT0=
EXTT1=
EXTT2=
EXTT3=
EXTT4=
EXTT5=
EXTT6=
EXTT7=
EXTT8=
EXTT9=
EXTT10=
EXTT11=
EXTT12=
EXTT13=
EXTT14=
EXTT15=
EXTT16=
PLAYORDER=
